<svg xmlns="http://www.w3.org/2000/svg" width="446" height="920" viewBox="0 0 446 920"><path fill="#2b2f38" fill-rule="evenodd" d="M76,0 H370 a72,72 0 0 1 72,72 V848 a72,72 0 0 1 -72,72 H76 a72,72 0 0 1 -72,-72 V72 a72,72 0 0 1 72,-72 Z M76,12 H370 a60,60 0 0 1 60,60 V848 a60,60 0 0 1 -60,60 H76 a60,60 0 0 1 -60,-60 V72 a60,60 0 0 1 60,-60 Z"/><path fill="none" stroke="#12151b" stroke-width="1" d="M76,11 H370 a61,61 0 0 1 61,61 V848 a61,61 0 0 1 -61,61 H76 a61,61 0 0 1 -61,-61 V72 a61,61 0 0 1 61,-61 Z"/><path fill="none" stroke="#3d434f" stroke-width="1" opacity=".5" d="M76.5,0.5 H369.5 a72,72 0 0 1 72,72 V847.5 a72,72 0 0 1 -72,72 H76.5 a72,72 0 0 1 -72,-72 V72.5 a72,72 0 0 1 72,-72 Z"/><rect x="161" y="23" width="124" height="33" rx="16.5" fill="#0d1014"/><rect x="1" y="155.36" width="4" height="62.72" rx="2" fill="#3d434f"/><rect x="1" y="236" width="4" height="62.72" rx="2" fill="#3d434f"/><rect x="441" y="191.2" width="4" height="98.56" rx="2" fill="#3d434f"/></svg>
